HIERARCHY
ROOT Hips
{
  OFFSET 0 0 0
  CHANNELS 6 Xposition Yposition Zposition Zrotation Yrotation Xrotation
  JOINT LeftThigh
  {
    OFFSET 8.409438 0 -5.917753
    CHANNELS 3 Zrotation Yrotation Xrotation
    JOINT LeftLeg
    {
      OFFSET 0 0 -42.358652
      CHANNELS 3 Zrotation Yrotation Xrotation
      JOINT LeftFoot
      {
        OFFSET 0 0 -39.357303
        CHANNELS 3 Zrotation Yrotation Xrotation
      }
    }
  }
  JOINT RightThigh
  {
    OFFSET -8.409438 0 -5.917753
    CHANNELS 3 Zrotation Yrotation Xrotation
    JOINT RightLeg
    {
      OFFSET 0 0 -42.358652
      CHANNELS 3 Zrotation Yrotation Xrotation
      JOINT RightFoot
      {
        OFFSET 0 0 -39.357303
        CHANNELS 3 Zrotation Yrotation Xrotation
      }
    }
  }
  JOINT SpineLow
  {
    OFFSET 0 0 4.719101
    CHANNELS 3 Zrotation Yrotation Xrotation
    JOINT SpineMid
    {
      OFFSET 0 0 12.899191
      CHANNELS 3 Zrotation Yrotation Xrotation
      JOINT Chest
      {
        OFFSET 0 0 12.899191
        CHANNELS 3 Zrotation Yrotation Xrotation
        JOINT LeftShoulder
        {
          OFFSET 7.550562 1.41573 9.438202
          CHANNELS 3 Zrotation Yrotation Xrotation
          JOINT LeftArm
          {
            OFFSET 9.155056 0 4.247191
            CHANNELS 3 Zrotation Yrotation Xrotation
            JOINT LeftForearm
            {
              OFFSET 0 0 25.771955
              CHANNELS 3 Zrotation Yrotation Xrotation
              JOINT LeftHand
              {
                OFFSET 0 0 25.197169
                CHANNELS 3 Zrotation Yrotation Xrotation
              }
            }
          }
        }
        JOINT RightShoulder
        {
          OFFSET -7.550562 1.41573 9.438202
          CHANNELS 3 Zrotation Yrotation Xrotation
          JOINT RightArm
          {
            OFFSET -9.155056 0 4.247191
            CHANNELS 3 Zrotation Yrotation Xrotation
            JOINT RightForearm
            {
              OFFSET 0 0 -25.771955
              CHANNELS 3 Zrotation Yrotation Xrotation
              JOINT RightHand
              {
                OFFSET 0 0 -25.197169
                CHANNELS 3 Zrotation Yrotation Xrotation
              }
            }
          }
        }
        JOINT Neck
        {
          OFFSET 0 0 15.101124
          CHANNELS 3 Zrotation Yrotation Xrotation
          JOINT Head
          {
            OFFSET 0 0 11.325843
            CHANNELS 3 Zrotation Yrotation Xrotation
            End Site
            {
              OFFSET 0 0 14.157303
            }
          }
        }
      }
    }
  }
}
MOTION
Frames: 13
Frame Time: 0.0
0.0  93.25843  0.0  -8.438483  -0.969578  -124.650438  5.949058  -15.500109  17.976476  -13.837302  0.272464  11.167361  3.44141  1.875363  4.148246  27.127589  -31.160404  -95.163353  25.376586  31.594439  108.133646  15.499115  8.163583  6.165499  -0.87311  -2.821507  2.476065  -2.68442  -7.611999  6.897541  -2.68442  -7.611999  6.897541  -16.774057  29.313355  13.628203  179.237231  45.987424  -136.506552  -16.905767  7.223713  75.147785  75.711197  -17.52849  -8.354083  -6.198941  -1.815261  22.626495  72.795533  50.101591  27.121523  -29.334615  4.934951  -74.294233  88.253762  -8.050486  -32.588866  -25.287769  16.074087  10.4558  -19.126284  11.653357  8.487927  
0.0  93.25843  0.0  -8.849111  -0.225761  -125.814856  5.540599  -15.846835  19.019271  -14.621971  0.547315  11.667168  3.273679  1.871447  4.137789  26.991153  -30.676194  -96.808894  25.345713  31.111645  108.545755  16.028479  8.037207  5.91901  -1.132237  -2.883667  2.742311  -3.432779  -7.739527  7.661918  -3.432779  -7.739527  7.661918  -15.460434  31.182042  14.15745  178.652544  44.603365  -139.822282  -17.891288  10.362406  71.447771  73.782845  -17.050759  -5.195079  -7.071238  -0.980613  23.173472  69.429321  45.617967  27.129544  -28.650573  4.902725  -74.141109  91.114755  -8.892874  -32.667922  -25.169652  16.111397  9.912239  -19.023036  11.705099  8.080261  
0.0  93.25843  0.0  -9.533333  1.460913  -126.473874  4.737426  -16.080143  19.501703  -15.415441  0.843945  12.189937  2.941431  1.840221  4.191419  26.362586  -30.227216  -98.733248  25.937487  31.01049  108.848934  16.625415  7.779632  5.913701  -1.629243  -2.868625  2.860663  -4.806282  -7.630786  8.042339  -4.806282  -7.630785  8.042339  -12.781239  32.830038  15.188986  179.149703  43.004499  -141.815384  -17.333616  12.324711  66.77341  75.343704  -17.63675  -0.990097  -7.210587  0.048954  24.465808  65.304263  41.576919  26.904794  -27.265864  5.209033  -73.876786  93.327848  -9.173203  -31.794017  -24.689057  16.131236  9.516986  -18.653852  11.742521  7.772357  
0.0  93.25843  0.0  -9.803357  2.53981  -127.269926  4.457458  -16.134605  19.957153  -15.862148  1.087132  12.945586  2.552827  1.822717  4.159153  26.30973  -29.995047  -100.216634  26.476171  30.879698  109.179653  16.983346  7.519963  5.80386  -1.99743  -2.85323  2.915517  -5.818958  -7.538046  8.232589  -5.818958  -7.538045  8.232589  -9.834674  34.240487  16.669828  179.188117  42.162424  -144.054848  -15.060465  12.419795  63.038393  77.418656  -17.76789  1.281576  -7.626519  1.236457  26.340899  60.348724  38.24506  26.761641  -24.666561  5.479258  -73.773824  94.422498  -9.239688  -30.220921  -24.284725  16.283006  9.229383  -18.344608  11.873364  7.551849  
0.0  93.25843  0.0  -9.958518  3.647384  -128.037428  4.447987  -16.359376  20.414126  -16.316904  1.395567  13.629582  1.89826  1.747658  4.106059  26.117535  -29.988803  -101.128726  27.076955  31.009617  109.281433  17.345115  7.342034  5.674285  -2.189069  -2.809555  2.931447  -6.339459  -7.39305  8.29247  -6.339459  -7.39305  8.29247  -8.018529  35.049154  18.447115  179.287598  41.72175  -146.733216  -11.652932  11.832124  60.33127  77.231994  -18.445646  2.589207  -8.934888  1.352102  27.440489  54.958781  35.669129  27.9962  -21.065882  3.911849  -73.561901  95.015279  -9.747006  -28.240982  -24.289383  16.239254  8.913653  -18.33914  11.852673  7.314765  
0.0  93.25843  0.0  -9.841376  4.644582  -129.018673  4.015787  -16.07231  21.077241  -16.34653  1.680886  14.41876  1.299389  1.730296  4.076033  25.962741  -30.230853  -101.257901  27.663947  31.1711  109.24851  17.41311  7.219078  5.557677  -2.470122  -2.693362  3.113909  -7.11132  -7.020153  8.80793  -7.11132  -7.020153  8.80793  -5.910128  35.643506  19.899777  179.306967  41.038233  -149.179659  -8.756847  10.490318  57.699231  76.318936  -19.504764  3.759813  -8.644397  1.29053  28.339039  49.938448  33.925615  29.992738  -17.391936  2.483034  -73.829404  93.886649  -10.556879  -24.639207  -23.680063  15.967762  8.119358  -17.863092  11.686454  6.694861  
0.0  93.25843  0.0  -9.79681  5.250434  -129.754677  3.554127  -15.999183  21.50448  -16.261573  2.094547  15.165235  0.891775  1.739529  3.995699  26.180589  -30.84318  -101.243467  28.08814  31.363533  109.029879  17.346245  7.201204  5.53512  -2.641443  -2.630807  3.309304  -7.590122  -6.803355  9.351961  -7.590123  -6.803355  9.351961  -4.788858  35.85004  20.774302  178.135352  39.924308  -151.997475  -7.942934  8.95431  54.646685  76.860053  -20.752391  4.739134  -8.464681  2.511366  29.933532  46.380864  32.251957  31.156769  -15.563357  1.259968  -73.361058  92.380294  -10.464952  -21.226617  -23.498553  15.807469  6.931569  -17.695553  11.612823  5.797423  
0.0  93.25843  0.0  -9.393818  5.404829  -129.748899  3.468725  -15.73432  21.199587  -16.264774  2.696552  15.722201  0.873176  1.737434  4.012423  27.17026  -31.236194  -101.305023  28.229866  31.534614  108.718785  17.184889  7.287162  5.509135  -2.71423  -2.471462  3.452922  -7.777195  -6.341694  9.730228  -7.777194  -6.341694  9.730227  -4.131348  34.846334  20.808671  175.977809  38.158154  -155.054514  -8.189564  7.061418  51.247052  77.860114  -21.903494  5.033069  -7.926269  3.360957  31.373924  44.885067  29.819942  32.32897  -15.242239  -0.152793  -72.716032  91.186986  -10.370997  -17.007925  -22.862893  15.087424  6.450821  -17.210754  11.095451  5.395222  
0.0  93.25843  0.0  -9.086111  5.244192  -130.066691  3.391  -15.780669  21.192402  -16.313845  3.382468  16.197461  1.040436  1.777468  4.092582  27.904836  -32.151331  -100.348356  28.153525  31.762813  108.229226  17.003808  7.448213  5.489799  -2.901003  -2.315571  3.799001  -8.291197  -5.844952  10.671086  -8.291197  -5.844952  10.671086  -2.946926  33.823605  19.772999  174.047899  36.845007  -157.598494  -8.764241  5.16033  48.093297  78.349957  -22.539057  4.99858  -6.153652  3.277644  31.329285  45.263901  26.754817  33.968913  -16.892455  -0.664515  -71.441333  90.526988  -10.013533  -12.75697  -22.02667  14.08021  5.755042  -16.571979  10.370792  4.81867  
0.0  93.25843  0.0  -8.535271  4.728636  -129.453665  4.042846  -15.864152  20.166492  -16.223907  4.060686  16.727076  1.059579  1.730149  4.093727  29.214355  -32.692992  -99.541724  27.809019  32.023653  107.658332  16.735022  7.615822  5.447789  -3.00684  -2.135726  4.091729  -8.570305  -5.299647  11.453158  -8.570305  -5.299647  11.453158  -2.27685  32.87383  17.742444  172.978645  35.782509  -159.51703  -9.704359  3.457146  44.999565  78.628556  -22.64925  4.932819  -4.440634  2.843584  30.32762  46.886943  23.059725  35.128129  -19.86188  -0.012049  -69.641542  90.077305  -9.450696  -9.649628  -21.315786  12.81657  4.988833  -16.026516  9.453487  4.185876  
0.0  93.25843  0.0  -7.811364  4.148227  -128.768169  4.988584  -15.879227  19.068869  -16.137513  4.636846  17.217112  1.053523  1.697905  4.108165  30.299272  -33.099073  -97.98006  27.187702  32.18786  107.05589  16.414171  7.75798  5.391014  -3.038925  -1.910052  4.362442  -8.633096  -4.644463  12.161521  -8.633096  -4.644463  12.161521  -1.820793  31.752542  15.824427  172.847202  34.84685  -160.633475  -11.127777  2.371577  42.065608  78.507918  -22.61027  5.210572  -2.980777  2.170133  29.058721  48.392541  19.515482  36.096309  -22.798245  1.112695  -68.333411  89.74649  -8.885407  -7.843468  -20.810977  11.500326  4.333486  -15.638542  8.49031  3.640673  
0.0  93.25843  0.0  -6.998019  3.495255  -128.00163  5.907799  -15.678358  17.860712  -15.761155  5.015544  17.776182  0.959954  1.61529  4.110172  31.04124  -33.470686  -95.72278  26.356877  32.144723  106.430189  16.10741  7.899908  5.311702  -2.962087  -1.715305  4.486688  -8.392528  -4.113459  12.467995  -8.392528  -4.113459  12.467995  -1.622025  31.053898  14.854677  173.592105  34.490473  -161.059132  -12.830171  2.051386  39.323614  78.188971  -22.530911  5.862617  -2.479089  1.967756  28.691741  49.660319  17.459901  36.781989  -24.730518  1.395567  -67.757634  89.645454  -8.478651  -6.753708  -20.649728  10.525124  3.985746  -15.513304  7.770416  3.344791  
0.0  93.25843  0.0  -6.233727  2.85267  -127.073072  6.615285  -15.269838  16.564864  -15.26543  5.196246  18.21607  0.996447  1.561657  4.164476  31.3649  -33.759776  -92.976071  25.428232  31.998621  105.829928  15.919512  8.023865  5.220212  -2.761665  -1.539731  4.434089  -7.809046  -3.680795  12.289736  -7.809046  -3.680796  12.289737  -1.691224  30.37861  15.022286  174.67522  34.755908  -161.040421  -14.509748  2.265308  36.945428  77.644163  -22.476367  6.754934  -3.106413  2.040653  29.389828  49.836526  16.768786  36.669748  -24.929594  1.458791  -67.883107  89.700749  -8.220942  -6.055314  -20.868803  9.797783  4.067006  -15.679595  7.220115  3.38514  
